<?xml version="1.0" encoding="UTF-8"?>
<svg id="Calque_1" data-name="Calque 1" xmlns="http://www.w3.org/2000/svg" viewBox="0 0 200 200">
  <defs>
    <style>
      .cls-1 {
        fill: #fff;
      }

      .cls-2 {
        fill: none;
      }
    </style>
  </defs>
  <rect class="cls-2" width="200" height="200"/>
  <rect class="cls-2" x="20" y="20" width="160" height="160"/>
  <path class="cls-1" d="M112.17,113.62h14.77v54.59c-.19,2.91-.98,7.78-4.43,12-7.01,8.57-21.01,9.62-30.46,4.34-5.54-3.1-8.47-7.79-9.82-10.37,3.95-2.54,7.89-5.09,11.84-7.63,3.08,6.34,9.3,8.9,13.39,7.12,3.26-1.42,4.38-5.27,4.61-6.15.03-17.97.07-35.93.1-53.9Z"/>
  <path class="cls-1" d="M171.98,131.86l11.15-7.48c-1.38-2.37-4.28-6.52-9.44-9.29-8.38-4.5-20.64-4.24-27.98,3.28-4.51,4.62-5.57,10.34-5.87,13.21-.24,2.2-.28,5.65,1.22,9.29,2.74,6.61,8.98,9.95,12.22,11.67,6.29,3.36,10.82,3.33,16.35,8.67.79.76,1.39,1.43,1.76,1.86.45.86,1.96,3.99.68,6.85-1.89,4.25-8.32,4.29-9.78,4.3-8.65.06-14.44-7.71-15.41-9.05-3.9,2.27-7.79,4.53-11.69,6.8,1.53,2.74,6.23,10.26,15.5,13.69,5.95,2.2,11.14,1.74,14.44,1.41,5.55-.56,12.07-1.21,16.83-6.19,5.72-5.99,6.12-15.35,3.72-22.23-3.84-10.99-14.47-14.59-15.75-14.99l-10.76-4.35c-2.57-1.12-4.34-3.47-4.61-6.13-.31-3.07,1.45-5.77,3.4-6.92,3.57-2.12,9.86-.29,14.02,5.62Z"/>
</svg>