<?xml version="1.0" encoding="UTF-8"?>
<svg id="Calque_1" data-name="Calque 1" xmlns="http://www.w3.org/2000/svg" viewBox="0 0 200 200">
  <defs>
    <style>
      .cls-1 {
        fill: #fff;
      }

      .cls-2 {
        fill: none;
      }
    </style>
  </defs>
  <rect class="cls-2" width="200" height="200"/>
  <rect class="cls-2" x="20" y="20" width="160" height="160"/>
  <path class="cls-1" d="M178.5,129.43l-38.76-68.91c-4.43-7.88-15.77-7.88-20.2,0l-9.96,17.71-19.54-34.75c-4.43-7.88-15.77-7.88-20.2,0l-48.34,85.95c-4.34,7.72,1.24,17.26,10.1,17.26,11.82-.07,23.63-.15,35.45-.22,3.25.19,11.43.23,19.96-4.72,7.12-4.13,10.97-9.71,12.65-12.53l9.98-17.17.16-.28,9.48-16.3,10.17-17.48,29.8,51.23h-18.98c-6.96-.01-13.92-.03-20.89-.04-3.23,5.84-6.46,11.67-9.69,17.51h58.7c8.86,0,14.44-9.54,10.1-17.26ZM99.94,95.38l-13.62,24.21h0c-1.37,1.78-4.3,5.09-9.17,7.35-4.17,1.93-7.93,2.25-10.1,2.28h-26.67l39.63-68.12.16.28.16-.28,19.77,33.99-.16.29Z"/>
</svg>