<?xml version="1.0" encoding="UTF-8"?>
<svg id="Calque_1" data-name="Calque 1" xmlns="http://www.w3.org/2000/svg" viewBox="0 0 200 200">
  <defs>
    <style>
      .cls-1 {
        fill: #fff;
      }

      .cls-2 {
        fill: none;
      }
    </style>
  </defs>
  <rect class="cls-2" width="200" height="200"/>
  <rect class="cls-2" x="20" y="20" width="160" height="160"/>
  <path class="cls-1" d="M118.16,38.99c7.59,0,15.03,2.99,20.53,8.56,7.78,7.87,10.37,19.54,6.65,29.96-2.93-2.28-6.83-4.8-11.72-6.86-2.17-.91-4.23-1.6-6.14-2.13.08-.39.86-4.58-2.09-7.68-1.59-1.67-3.83-2.57-6.15-2.57-1.18,0-2.39.23-3.55.71-13.1,8.21-26.19,16.41-39.29,24.62-2.67,2.81-3.06,7.12-.93,10.35,1.58,2.39,4.24,3.75,6.99,3.75.98,0,1.96-.17,2.92-.53,7.06-4.16,14.12-8.32,21.19-12.48,2.99-.81,6-1.2,8.95-1.2,9.86,0,19.02,4.34,24.36,11.9,4.84,6.85,6.96,16.91,3.45,26-1.98,5.13-5.19,8.49-7.2,10.29-14.45,9.05-28.9,18.09-43.35,27.14-.86.34-5.74,2.21-12.02,2.21-4.46,0-9.63-.94-14.56-4.04-10.74-6.75-15.82-20.9-11.88-34.57,2.85,1.95,6.22,3.98,10.13,5.88,2.63,1.28,5.15,2.32,7.49,3.17-.53,3.9,1.35,7.68,4.65,9.47,1.4.76,2.81,1.02,4.08,1.02,2.74,0,4.87-1.22,5.02-1.31,12.62-8.11,25.23-16.23,37.85-24.34,2.37-2.84,2.82-6.74,1.18-9.72-1.46-2.65-4.41-4.27-7.58-4.27-1.22,0-2.47.24-3.68.76-6.09,3.73-12.18,7.45-18.27,11.18-3.92,1.76-8.03,2.59-12.06,2.59-9.76,0-19.1-4.86-24.24-13.21-6.54-10.61-5.07-24.83,3.84-34.42,15.36-9.55,30.72-19.11,46.08-28.66,3.06-1.05,6.23-1.57,9.36-1.57M118.16,19.99c-5.3,0-10.54.88-15.55,2.6-1.35.46-2.64,1.08-3.85,1.83l-23.04,14.33-23.04,14.33c-1.43.89-2.74,1.97-3.89,3.2-13.55,14.59-16.72,35.85-8.37,53.17-2.02,2.16-3.53,4.79-4.37,7.7-6.23,21.59,2.01,44.59,20.02,55.92,7.24,4.55,15.77,6.96,24.68,6.96s16.39-2.49,19.07-3.57c1.05-.42,2.07-.94,3.03-1.54l43.35-27.14c.91-.57,1.77-1.22,2.58-1.94,5.46-4.87,9.7-10.96,12.26-17.61,4.66-12.07,3.84-25.93-1.97-37.63,1.82-1.9,3.24-4.19,4.15-6.73,6.14-17.2,1.81-36.71-11.03-49.71-8.92-9.03-21.33-14.2-34.04-14.2h0Z"/>
</svg>