<?xml version="1.0" encoding="UTF-8"?>
<svg id="Calque_1" data-name="Calque 1" xmlns="http://www.w3.org/2000/svg" viewBox="0 0 200 200">
  <defs>
    <style>
      .cls-1 {
        fill: #fff;
      }

      .cls-2 {
        fill: none;
      }
    </style>
  </defs>
  <rect class="cls-2" width="200" height="200"/>
  <rect class="cls-2" x="20" y="20" width="160" height="160"/>
  <path class="cls-1" d="M100,57.57c12.31,28.3,24.63,56.61,36.94,84.91-6.39-3.27-19.49-8.9-36.94-8.9s-30.55,5.63-36.94,8.9c12.31-28.3,24.63-56.61,36.94-84.91M100,20.57c-14.73,0-28.05,8.73-33.93,22.24l-18.47,42.46-18.47,42.46c-6.23,14.33-2.79,31.03,8.59,41.73,7.02,6.6,16.13,10.04,25.35,10.04,5.73,0,11.5-1.33,16.83-4.06,4.32-2.21,11.31-4.84,20.1-4.84s15.78,2.63,20.1,4.84c5.33,2.73,11.11,4.06,16.83,4.06,9.22,0,18.32-3.44,25.35-10.04,11.39-10.7,14.83-27.4,8.59-41.73l-28.35-65.16-8.59-19.75c-5.88-13.51-19.2-22.24-33.93-22.24h0Z"/>
</svg>