<?xml version="1.0" encoding="UTF-8"?>
<svg id="Calque_1" data-name="Calque 1" xmlns="http://www.w3.org/2000/svg" viewBox="0 0 200 200">
  <defs>
    <style>
      .cls-1 {
        stroke: #000;
        stroke-linecap: round;
        stroke-miterlimit: 10;
        stroke-width: 3px;
      }

      .cls-1, .cls-2 {
        fill: none;
      }

      .cls-3 {
        fill: #fff;
      }

      .cls-4 {
        fill: #cfcfcf;
      }
    </style>
  </defs>
  <rect class="cls-2" width="200" height="200"/>
  <rect class="cls-2" x="20" y="20" width="160" height="160"/>
  <g>
    <g>
      <path class="cls-4" d="M158.66,108.93c-1.9-7.72-1.12-12.9-.71-14.96.68-3.4,1.97-6.5,1.97-6.5,1.02-2.44,1.68-3.21,2.85-5.66.21-.44,1.83-3.89,2.77-7.63,1.42-5.71.85-10.55.63-12.06,0,0-1.19-8.33-7.08-15.79-2.7-3.43-5.78-5.79-6.16-6.08,0,0-1.12-.85-2.29-1.59-8.35-5.28-17.9-5.12-17.9-5.12-2.61.04-7.85.46-13.29,3.1-2.76,1.34-3.19,2.1-6.29,3.39-1.09.46-5.22,2.11-10.94,2.47-1.83.12-6.64.38-11.86-1.26-1.4-.44-3.14-.96-5.16-2.1-.65-.37-1.24-.74-2.44-1.39-1.33-.72-2.44-1.26-3.2-1.61-2.45-1.02-6.49-2.36-11.63-2.51-2.05-.06-6.89,0-12.57,2.12-2.84,1.07-7.63,3.31-12.09,7.85-.89.91-8.66,9.04-9.52,20.93-.3,4.17.33,7.67.5,8.58.78,4.06,2.14,7.06,2.63,8.08,1.2,2.51,1.78,2.87,2.98,5.57,1.25,2.82,1.82,5.15,2,5.93.28,1.21,1.36,6.23.36,12.54-.34,2.15-.82,3.79-1.02,4.43-.77,2.51-1.68,4.36-2.36,5.72-.96,1.93-1.22,2.13-1.92,3.5-1.57,3.06-2.16,5.73-2.51,7.39-.42,1.94-1.01,5.53-.63,9.87.71,8.12,4.37,13.88,5.63,15.72,6.17,9.02,14.88,12.07,17.39,12.91,2.12.71,3.78,1.02,4.25,1.11,8.51,1.56,15.52-.96,18.3-1.99,5.59-2.08,5.49-3.47,11.3-5.13,4.64-1.33,8.08-1.41,9.24-1.41,1.13,0,4.63.05,9.24,1.33,6.44,1.79,7.59,3.91,13.17,5.86,0,0,1.42.5,3.62.98,3.63.79,6.7.91,8.29.89,8.37-.12,15.71-4.72,16.75-5.39,1.92-1.23,6.83-4.46,10.56-10.6,5.05-8.32,5.8-18.49,3.48-26.61-1.88-6.58-4.27-6.52-6.33-14.88Z"/>
      <path class="cls-4" d="M135.29,147.75c4.12-6.8,8.33-9.92,10.08-11.08,2.88-1.93,5.99-3.2,5.99-3.2,2.44-1,3.46-1.08,6.02-1.99.46-.16,4.05-1.45,7.35-3.44,5.04-3.03,8.06-6.86,8.97-8.08,0,0,5.04-6.73,6.16-16.17.51-4.34,0-8.18-.06-8.65,0,0-.19-1.4-.5-2.75-2.17-9.64-9.03-16.28-9.03-16.28-1.88-1.81-5.87-5.23-11.59-7.2-2.9-1-3.74-.77-6.85-2.04-1.09-.45-5.18-2.2-9.48-5.99-1.38-1.21-4.96-4.42-7.5-9.28-.68-1.3-1.54-2.9-2.16-5.13-.2-.72-.35-1.4-.74-2.71-.43-1.45-.84-2.62-1.13-3.4-1.01-2.46-2.92-6.26-6.44-10-1.41-1.49-4.87-4.88-10.39-7.39-2.77-1.26-7.73-3.06-14.11-3-1.27.01-12.52.27-21.53,8.07-3.16,2.73-5.19,5.66-5.71,6.42-2.32,3.42-3.48,6.51-3.85,7.57-.93,2.62-.77,3.29-1.84,6.05-1.11,2.88-2.36,4.93-2.78,5.61-.66,1.05-3.44,5.37-8.61,9.12-1.76,1.28-3.26,2.09-3.85,2.41-2.32,1.23-4.27,1.89-5.71,2.37-2.04.68-2.36.64-3.84,1.12-3.27,1.05-5.58,2.53-7,3.45-1.67,1.08-4.62,3.2-7.42,6.53-5.24,6.24-6.73,12.91-7.14,15.1-2.02,10.74,1.99,19.06,3.17,21.43,1,2,1.95,3.4,2.22,3.79,4.91,7.12,11.65,10.3,14.34,11.53,5.42,2.48,6.34,1.43,11.62,4.36,4.22,2.34,6.71,4.71,7.54,5.53.8.8,3.24,3.31,5.59,7.48,3.29,5.82,2.6,8.13,5.17,13.46,0,0,.65,1.35,1.87,3.25,2,3.12,4.1,5.38,5.24,6.49,6,5.83,14.45,7.77,15.66,8.04,2.23.49,7.98,1.68,14.97-.03,9.45-2.31,17.18-8.97,21.28-16.36,3.32-5.99,1.59-7.63,6.05-15Z"/>
      <path class="cls-3" d="M157.42,131.96c.46-.16,4.05-1.45,7.35-3.44.39-.24.77-.48,1.14-.72-.21-1.38-.5-2.72-.87-4.01-1.88-6.58-4.27-6.52-6.33-14.88-1.9-7.72-1.12-12.9-.71-14.96.68-3.4,1.97-6.5,1.97-6.5,1.02-2.44,1.68-3.21,2.85-5.66.21-.44,1.83-3.89,2.77-7.63.1-.4.19-.8.27-1.19-1.93-1.3-4.32-2.62-7.13-3.59-2.9-1-3.74-.77-6.85-2.04-1.09-.45-5.18-2.2-9.48-5.99-1.38-1.21-4.96-4.42-7.5-9.28-.68-1.3-1.54-2.9-2.16-5.13-.2-.72-.35-1.4-.74-2.71-.43-1.45-.84-2.62-1.13-3.4-.71-1.74-1.88-4.14-3.74-6.73-2.3.44-4.94,1.2-7.64,2.51-2.76,1.34-3.19,2.1-6.29,3.39-1.09.46-5.22,2.11-10.94,2.47-1.83.12-6.64.38-11.86-1.26-1.4-.44-3.14-.96-5.16-2.1-.65-.37-1.24-.74-2.44-1.39-1.33-.72-2.44-1.26-3.2-1.61-1.54-.64-3.72-1.41-6.4-1.93-.24.33-.41.58-.52.74-2.32,3.42-3.48,6.51-3.85,7.57-.93,2.62-.77,3.29-1.84,6.05-1.11,2.88-2.36,4.93-2.78,5.61-.66,1.05-3.44,5.37-8.61,9.12-1.76,1.28-3.26,2.09-3.85,2.41-2.32,1.23-4.27,1.89-5.71,2.37-2.04.68-2.36.64-3.84,1.12-3.27,1.05-5.58,2.53-7,3.45-.26.17-.56.36-.87.59.78,4.01,2.13,6.97,2.61,7.98,1.2,2.51,1.78,2.87,2.98,5.57,1.25,2.82,1.82,5.15,2,5.93.28,1.21,1.36,6.23.36,12.54-.34,2.15-.82,3.79-1.02,4.43-.77,2.51-1.68,4.36-2.36,5.72-.96,1.93-1.22,2.13-1.92,3.5-1.57,3.06-2.16,5.73-2.51,7.39-.08.37-.17.81-.25,1.29,2.57,1.77,4.86,2.85,6.19,3.45,5.42,2.48,6.34,1.43,11.62,4.36,4.22,2.34,6.71,4.71,7.54,5.53.8.8,3.24,3.31,5.59,7.48,3.29,5.82,2.6,8.13,5.17,13.46,0,0,.65,1.35,1.87,3.25.16.25.32.49.47.72,3.04-.56,5.39-1.42,6.74-1.92,5.59-2.08,5.49-3.47,11.3-5.13,4.64-1.33,8.08-1.41,9.24-1.41,1.13,0,4.63.05,9.24,1.33,6.44,1.79,7.59,3.91,13.17,5.86,0,0,1.42.5,3.62.98.59.13,1.16.24,1.72.34.59-.86,1.13-1.73,1.62-2.61,3.32-5.99,1.59-7.63,6.05-15,4.12-6.8,8.33-9.92,10.08-11.08,2.88-1.93,5.99-3.2,5.99-3.2,2.44-1,3.46-1.08,6.02-1.99Z"/>
    </g>
    <g>
      <path class="cls-1" d="M93.83,107.89c.42.4,3.09,2.87,7.04,2.54,2.97-.25,4.88-1.94,5.46-2.49"/>
      <path d="M138,92.65c1.01-1.01,1.01-2.66,0-3.68l-.22-.22c-1.01-1.01-2.66-1.01-3.68,0l-.91.91c-1.53-.88-3.3-1.38-5.18-1.38-5.76,0-10.42,4.67-10.42,10.42s4.67,10.42,10.42,10.42,10.42-4.67,10.42-10.42c0-1.87-.49-3.62-1.35-5.14l.92-.92ZM125.71,97.99c-2.33,0-4.21-1.89-4.21-4.21s1.89-4.21,4.21-4.21,4.21,1.89,4.21,4.21-1.89,4.21-4.21,4.21ZM130.99,105.22c-.76,0-1.37-.61-1.37-1.37s.61-1.37,1.37-1.37,1.37.61,1.37,1.37-.61,1.37-1.37,1.37ZM133.56,101.6c-1.15,0-2.09-.93-2.09-2.09s.93-2.09,2.09-2.09,2.09.93,2.09,2.09-.93,2.09-2.09,2.09Z"/>
      <path d="M63.02,93.58c-.86,1.52-1.35,3.27-1.35,5.14,0,5.76,4.67,10.42,10.42,10.42s10.42-4.67,10.42-10.42-4.67-10.42-10.42-10.42c-1.89,0-3.66.5-5.18,1.38l-.91-.91c-1.01-1.01-2.66-1.01-3.68,0l-.22.22c-1.01,1.01-1.01,2.66,0,3.68l.92.92ZM65.66,93.77c0-2.33,1.89-4.21,4.21-4.21s4.21,1.89,4.21,4.21-1.89,4.21-4.21,4.21-4.21-1.89-4.21-4.21ZM73.74,103.85c0-.76.61-1.37,1.37-1.37s1.37.61,1.37,1.37-.61,1.37-1.37,1.37-1.37-.61-1.37-1.37ZM75.67,99.51c0-1.15.93-2.09,2.09-2.09s2.09.93,2.09,2.09-.93,2.09-2.09,2.09-2.09-.93-2.09-2.09Z"/>
    </g>
  </g>
</svg>