<?xml version="1.0" encoding="UTF-8"?>
<svg id="Calque_1" data-name="Calque 1" xmlns="http://www.w3.org/2000/svg" viewBox="0 0 200 200">
  <defs>
    <style>
      .cls-1 {
        fill: #fff;
      }

      .cls-2 {
        fill: none;
      }
    </style>
  </defs>
  <rect class="cls-2" width="200" height="200"/>
  <rect class="cls-2" x="20" y="20" width="160" height="160"/>
  <path class="cls-1" d="M60.09,83.05c.85-4.01,2.09-7.24,3.16-9.59,1.79-3.92,3.66-6.57,4.16-7.26,1.65-2.29,3.13-3.82,3.44-4.15,3.67-3.78,7.44-5.9,9.44-6.9,3.93-1.95,7.21-2.64,9.65-3.13,6.23-1.26,11.16-.91,14.93-.61,2.7.21,5.29.43,8.66,1.37,3.98,1.11,6.87,2.63,8.31,3.39,2.75,1.46,4.71,2.87,5.49,3.46,1.92,1.43,3.23,2.66,4.86,4.24,5.58,5.39,5.87,6.04,7.99,7.96,3.21,2.9,5.98,5.4,10.4,6.91,1.78.61,7.55,2.33,14.13.25,1.81-.57,3.07-1.24,4.08-1.78,2.69-1.44,7.1-4.33,11.22-10.02-.15.67-.38,1.59-.7,2.69-1.64,5.63-3.87,9.59-4.43,10.57-1.43,2.48-3.7,6.33-7.99,10-5.31,4.55-10.67,6.23-13.21,6.99-5.54,1.67-9.97,1.65-13.66,1.63-3.45-.02-8.61-.08-14.93-2.12-5.38-1.73-9.11-4.09-10.34-4.89-3.93-2.58-6.73-5.4-11.8-10.5-2.37-2.39-4.12-4.3-7.3-6.59-3.27-2.34-5.36-3.15-6.13-3.42-.7-.25-3.7-1.29-7.79-1.24-1.42.02-5.38.19-9.87,2.27-4.45,2.06-7.14,4.95-8.85,6.83-1.31,1.43-2.26,2.74-2.9,3.67Z"/>
  <path class="cls-1" d="M20,131.05c.85-4.01,2.09-7.24,3.16-9.59,1.79-3.92,3.66-6.57,4.16-7.26,1.65-2.29,3.13-3.82,3.44-4.15,3.67-3.78,7.44-5.9,9.44-6.9,3.93-1.95,7.21-2.64,9.65-3.13,6.23-1.26,11.16-.91,14.93-.61,2.7.21,5.29.43,8.66,1.37,3.98,1.11,6.87,2.63,8.31,3.39,2.75,1.46,4.71,2.87,5.49,3.46,1.92,1.43,3.23,2.66,4.86,4.24,5.58,5.39,5.87,6.04,7.99,7.96,3.21,2.9,5.98,5.4,10.4,6.91,1.78.61,7.55,2.33,14.13.25,1.81-.57,3.07-1.24,4.08-1.78,2.69-1.44,7.1-4.33,11.22-10.02-.15.67-.38,1.59-.7,2.69-1.64,5.63-3.87,9.59-4.43,10.57-1.43,2.48-3.7,6.33-7.99,10-5.31,4.55-10.67,6.23-13.21,6.99-5.54,1.67-9.97,1.65-13.66,1.63-3.45-.02-8.61-.08-14.93-2.12-5.38-1.73-9.11-4.09-10.34-4.89-3.93-2.58-6.73-5.4-11.8-10.5-2.37-2.39-4.12-4.3-7.3-6.59-3.27-2.34-5.36-3.15-6.13-3.42-.7-.25-3.7-1.29-7.79-1.24-1.42.02-5.38.19-9.87,2.27-4.45,2.06-7.14,4.95-8.85,6.83-1.31,1.43-2.26,2.74-2.9,3.67Z"/>
</svg>